<?xml version="1.0" encoding="UTF-8" standalone="no"?>
<!DOCTYPE svg PUBLIC "-//W3C//DTD SVG 1.1//EN"
 "http://www.w3.org/Graphics/SVG/1.1/DTD/svg11.dtd">
<!-- Generated by graphviz version 2.43.0 (0)
 -->
<!-- Title: Hover the mouse over a callback. Pages: 1 -->
<svg width="1290pt" height="198pt"
 viewBox="0.00 0.00 1290.00 198.00" xmlns="http://www.w3.org/2000/svg" xmlns:xlink="http://www.w3.org/1999/xlink">
<g id="graph0" class="graph" transform="scale(1 1) rotate(0) translate(4 194)">
<title>Hover the mouse over a callback.</title>
<polygon fill="white" stroke="transparent" points="-4,4 -4,-194 1286,-194 1286,4 -4,4"/>
<g id="clust1" class="cluster">
<title>cluster_ns_</title>
<path fill="#e5e5e5" stroke="#e5e5e5" d="M12,-8C12,-8 1262,-8 1262,-8 1268,-8 1274,-14 1274,-20 1274,-20 1274,-170 1274,-170 1274,-176 1268,-182 1262,-182 1262,-182 12,-182 12,-182 6,-182 0,-176 0,-170 0,-170 0,-20 0,-20 0,-14 6,-8 12,-8"/>
</g>
<g id="clust2" class="cluster">
<title>cluster_node_/actuator_dummy_node</title>
<path fill="white" stroke="black" d="M1077,-84C1077,-84 1254,-84 1254,-84 1260,-84 1266,-90 1266,-96 1266,-96 1266,-147 1266,-147 1266,-153 1260,-159 1254,-159 1254,-159 1077,-159 1077,-159 1071,-159 1065,-153 1065,-147 1065,-147 1065,-96 1065,-96 1065,-90 1071,-84 1077,-84"/>
<text text-anchor="middle" x="1165.5" y="-143.8" font-family="Times,serif" font-size="14.00">/actuator_dummy_node</text>
</g>
<g id="clust3" class="cluster">
<title>cluster_node_/filter_node</title>
<path fill="white" stroke="black" d="M267,-99C267,-99 444,-99 444,-99 450,-99 456,-105 456,-111 456,-111 456,-162 456,-162 456,-168 450,-174 444,-174 444,-174 267,-174 267,-174 261,-174 255,-168 255,-162 255,-162 255,-111 255,-111 255,-105 261,-99 267,-99"/>
<text text-anchor="middle" x="355.5" y="-158.8" font-family="Times,serif" font-size="14.00">/filter_node</text>
</g>
<g id="clust4" class="cluster">
<title>cluster_node_/message_driven_node</title>
<path fill="white" stroke="black" d="M537,-30C537,-30 714,-30 714,-30 720,-30 726,-36 726,-42 726,-42 726,-147 726,-147 726,-153 720,-159 714,-159 714,-159 537,-159 537,-159 531,-159 525,-153 525,-147 525,-147 525,-42 525,-42 525,-36 531,-30 537,-30"/>
<text text-anchor="middle" x="625.5" y="-143.8" font-family="Times,serif" font-size="14.00">/message_driven_node</text>
</g>
<g id="clust5" class="cluster">
<title>cluster_node_/timer_driven_node</title>
<path fill="white" stroke="black" d="M807,-30C807,-30 984,-30 984,-30 990,-30 996,-36 996,-42 996,-42 996,-147 996,-147 996,-153 990,-159 984,-159 984,-159 807,-159 807,-159 801,-159 795,-153 795,-147 795,-147 795,-42 795,-42 795,-36 801,-30 807,-30"/>
<text text-anchor="middle" x="895.5" y="-143.8" font-family="Times,serif" font-size="14.00">/timer_driven_node</text>
</g>
<g id="clust6" class="cluster">
<title>cluster_node_/sensor_dummy_node</title>
<path fill="white" stroke="black" d="M20,-99C20,-99 166,-99 166,-99 172,-99 178,-105 178,-111 178,-111 178,-162 178,-162 178,-168 172,-174 166,-174 166,-174 20,-174 20,-174 14,-174 8,-168 8,-162 8,-162 8,-111 8,-111 8,-105 14,-99 20,-99"/>
<text text-anchor="middle" x="93" y="-158.8" font-family="Times,serif" font-size="14.00">/sensor_dummy_node</text>
</g>
<g id="clust7" class="cluster">
<title>cluster_node_/drive_node</title>
<path fill="white" stroke="black" d="M291.5,-16C291.5,-16 419.5,-16 419.5,-16 425.5,-16 431.5,-22 431.5,-28 431.5,-28 431.5,-79 431.5,-79 431.5,-85 425.5,-91 419.5,-91 419.5,-91 291.5,-91 291.5,-91 285.5,-91 279.5,-85 279.5,-79 279.5,-79 279.5,-28 279.5,-28 279.5,-22 285.5,-16 291.5,-16"/>
<text text-anchor="middle" x="355.5" y="-75.8" font-family="Times,serif" font-size="14.00">/drive_node</text>
</g>
<!-- /actuator_dummy_node/subscription_callback_0 -->
<g id="node1" class="node">
<title>/actuator_dummy_node/subscription_callback_0</title>
<g id="a_node1"><a xlink:title="topic name: /topic4&#10; symbol: ActuatorDummy::ActuatorDummy(std::__cxx11::basic_string&lt;char,std::char_traits&lt;char&gt;,std::allocator&lt;char&gt;&gt;,std::__cxx11::basic_string&lt;char,std::char_traits&lt;char&gt;,std::allocator&lt;char&gt;&gt;)::{lambda(std::unique_ptr&lt;sensor_msgs::msg::Image&gt;)#1}">
<polygon fill="none" stroke="black" points="1258,-128 1073,-128 1073,-92 1258,-92 1258,-128"/>
<text text-anchor="middle" x="1165.5" y="-106.3" font-family="Times,serif" font-size="14.00">subscription_callback_0</text>
</a>
</g>
</g>
<!-- /filter_node/subscription_callback_0 -->
<g id="node2" class="node">
<title>/filter_node/subscription_callback_0</title>
<g id="a_node2"><a xlink:title="topic name: /topic1&#10; symbol: NoDependencyNode::NoDependencyNode(std::__cxx11::basic_string&lt;char,std::char_traits&lt;char&gt;,std::allocator&lt;char&gt;&gt;,std::__cxx11::basic_string&lt;char,std::char_traits&lt;char&gt;,std::allocator&lt;char&gt;&gt;,std::__cxx11::basic_string&lt;char,std::char_traits&lt;char&gt;,std::allocator&lt;char&gt;&gt;)::{lambda(std::unique_ptr&lt;sensor_msgs::msg::Image&gt;)#1}">
<polygon fill="none" stroke="black" points="448,-143 263,-143 263,-107 448,-107 448,-143"/>
<text text-anchor="middle" x="355.5" y="-121.3" font-family="Times,serif" font-size="14.00">subscription_callback_0</text>
</a>
</g>
</g>
<!-- /message_driven_node/subscription_callback_0 -->
<g id="node3" class="node">
<title>/message_driven_node/subscription_callback_0</title>
<g id="a_node3"><a xlink:title="topic name: /topic2&#10; symbol: SubDependencyNode::SubDependencyNode(std::__cxx11::basic_string&lt;char,std::char_traits&lt;char&gt;,std::allocator&lt;char&gt;&gt;,std::__cxx11::basic_string&lt;char,std::char_traits&lt;char&gt;,std::allocator&lt;char&gt;&gt;,std::__cxx11::basic_string&lt;char,std::char_traits&lt;char&gt;,std::allocator&lt;char&gt;&gt;,std::__cxx11::basic_string&lt;char,std::char_traits&lt;char&gt;,std::allocator&lt;char&gt;&gt;)::{lambda(std::unique_ptr&lt;sensor_msgs::msg::Image&gt;)#1}">
<polygon fill="none" stroke="black" points="718,-128 533,-128 533,-92 718,-92 718,-128"/>
<text text-anchor="middle" x="625.5" y="-106.3" font-family="Times,serif" font-size="14.00">subscription_callback_0</text>
</a>
</g>
</g>
<!-- /filter_node/subscription_callback_0&#45;&gt;/message_driven_node/subscription_callback_0 -->
<g id="edge1" class="edge">
<title>/filter_node/subscription_callback_0&#45;&gt;/message_driven_node/subscription_callback_0</title>
<path fill="none" stroke="black" d="M448.36,-119.86C472.33,-118.52 498.3,-117.06 522.75,-115.69"/>
<polygon fill="black" stroke="black" points="522.98,-119.19 532.76,-115.13 522.58,-112.2 522.98,-119.19"/>
<text text-anchor="middle" x="490.5" y="-121.8" font-family="Times,serif" font-size="14.00">/topic2</text>
</g>
<!-- /timer_driven_node/subscription_callback_0 -->
<g id="node5" class="node">
<title>/timer_driven_node/subscription_callback_0</title>
<g id="a_node5"><a xlink:title="topic name: /topic3&#10; symbol: TimerDependencyNode::TimerDependencyNode(std::__cxx11::basic_string&lt;char,std::char_traits&lt;char&gt;,std::allocator&lt;char&gt;&gt;,std::__cxx11::basic_string&lt;char,std::char_traits&lt;char&gt;,std::allocator&lt;char&gt;&gt;,std::__cxx11::basic_string&lt;char,std::char_traits&lt;char&gt;,std::allocator&lt;char&gt;&gt;,int)::{lambda(std::unique_ptr&lt;sensor_msgs::msg::Image&gt;)#1}">
<polygon fill="none" stroke="black" points="988,-128 803,-128 803,-92 988,-92 988,-128"/>
<text text-anchor="middle" x="895.5" y="-106.3" font-family="Times,serif" font-size="14.00">subscription_callback_0</text>
</a>
</g>
</g>
<!-- /message_driven_node/subscription_callback_0&#45;&gt;/timer_driven_node/subscription_callback_0 -->
<g id="edge2" class="edge">
<title>/message_driven_node/subscription_callback_0&#45;&gt;/timer_driven_node/subscription_callback_0</title>
<g id="a_edge2"><a xlink:title="The callback to publish is not specified.">
<path fill="none" stroke="red" d="M726.42,-110C748.02,-110 770.89,-110 792.56,-110"/>
<ellipse fill="red" stroke="red" cx="730" cy="-110" rx="4" ry="4"/>
<polygon fill="red" stroke="red" points="792.76,-113.5 802.76,-110 792.76,-106.5 792.76,-113.5"/>
</a>
</g>
<text text-anchor="middle" x="760.5" y="-113.8" font-family="Times,serif" font-size="14.00">/topic3</text>
</g>
<!-- /message_driven_node/subscription_callback_1 -->
<g id="node4" class="node">
<title>/message_driven_node/subscription_callback_1</title>
<g id="a_node4"><a xlink:title="topic name: /drive&#10; symbol: SubDependencyNode::SubDependencyNode(std::__cxx11::basic_string&lt;char,std::char_traits&lt;char&gt;,std::allocator&lt;char&gt;&gt;,std::__cxx11::basic_string&lt;char,std::char_traits&lt;char&gt;,std::allocator&lt;char&gt;&gt;,std::__cxx11::basic_string&lt;char,std::char_traits&lt;char&gt;,std::allocator&lt;char&gt;&gt;,std::__cxx11::basic_string&lt;char,std::char_traits&lt;char&gt;,std::allocator&lt;char&gt;&gt;)::{lambda(std::unique_ptr&lt;sensor_msgs::msg::Image&gt;)#2}">
<polygon fill="none" stroke="black" points="718,-74 533,-74 533,-38 718,-38 718,-74"/>
<text text-anchor="middle" x="625.5" y="-52.3" font-family="Times,serif" font-size="14.00">subscription_callback_1</text>
</a>
</g>
</g>
<!-- /timer_driven_node/subscription_callback_0&#45;&gt;/actuator_dummy_node/subscription_callback_0 -->
<g id="edge3" class="edge">
<title>/timer_driven_node/subscription_callback_0&#45;&gt;/actuator_dummy_node/subscription_callback_0</title>
<g id="a_edge3"><a xlink:title="The callback to publish is not specified.">
<path fill="none" stroke="red" d="M996.42,-110C1018.02,-110 1040.89,-110 1062.56,-110"/>
<ellipse fill="red" stroke="red" cx="1000" cy="-110" rx="4" ry="4"/>
<polygon fill="red" stroke="red" points="1062.76,-113.5 1072.76,-110 1062.76,-106.5 1062.76,-113.5"/>
</a>
</g>
<text text-anchor="middle" x="1030.5" y="-113.8" font-family="Times,serif" font-size="14.00">/topic4</text>
</g>
<!-- /timer_driven_node/timer_callback_0 -->
<g id="node6" class="node">
<title>/timer_driven_node/timer_callback_0</title>
<g id="a_node6"><a xlink:title="period ns: 100,000,000&#10; symbol: TimerDependencyNode::TimerDependencyNode(std::__cxx11::basic_string&lt;char,std::char_traits&lt;char&gt;,std::allocator&lt;char&gt;&gt;,std::__cxx11::basic_string&lt;char,std::char_traits&lt;char&gt;,std::allocator&lt;char&gt;&gt;,std::__cxx11::basic_string&lt;char,std::char_traits&lt;char&gt;,std::allocator&lt;char&gt;&gt;,int)::{lambda()#2}">
<polygon fill="none" stroke="black" points="963.5,-74 827.5,-74 827.5,-38 963.5,-38 963.5,-74"/>
<text text-anchor="middle" x="895.5" y="-52.3" font-family="Times,serif" font-size="14.00">timer_callback_0</text>
</a>
</g>
</g>
<!-- /sensor_dummy_node/timer_callback_0 -->
<g id="node7" class="node">
<title>/sensor_dummy_node/timer_callback_0</title>
<g id="a_node7"><a xlink:title="period ns: 50,000,000&#10; symbol: SensorDummy::SensorDummy(std::__cxx11::basic_string&lt;char,std::char_traits&lt;char&gt;,std::allocator&lt;char&gt;&gt;,std::__cxx11::basic_string&lt;char,std::char_traits&lt;char&gt;,std::allocator&lt;char&gt;&gt;,int)::{lambda()#1}">
<polygon fill="none" stroke="black" points="161,-143 25,-143 25,-107 161,-107 161,-143"/>
<text text-anchor="middle" x="93" y="-121.3" font-family="Times,serif" font-size="14.00">timer_callback_0</text>
</a>
</g>
</g>
<!-- /sensor_dummy_node/timer_callback_0&#45;&gt;/filter_node/subscription_callback_0 -->
<g id="edge4" class="edge">
<title>/sensor_dummy_node/timer_callback_0&#45;&gt;/filter_node/subscription_callback_0</title>
<path fill="none" stroke="black" d="M161.09,-125C188.85,-125 221.67,-125 252.31,-125"/>
<polygon fill="black" stroke="black" points="252.61,-128.5 262.61,-125 252.61,-121.5 252.61,-128.5"/>
<text text-anchor="middle" x="220.5" y="-128.8" font-family="Times,serif" font-size="14.00">/topic1</text>
</g>
<!-- /drive_node/timer_callback_0 -->
<g id="node8" class="node">
<title>/drive_node/timer_callback_0</title>
<g id="a_node8"><a xlink:title="period ns: 100,000,000&#10; symbol: SensorDummy::SensorDummy(std::__cxx11::basic_string&lt;char,std::char_traits&lt;char&gt;,std::allocator&lt;char&gt;&gt;,std::__cxx11::basic_string&lt;char,std::char_traits&lt;char&gt;,std::allocator&lt;char&gt;&gt;,int)::{lambda()#1}">
<polygon fill="none" stroke="black" points="423.5,-60 287.5,-60 287.5,-24 423.5,-24 423.5,-60"/>
<text text-anchor="middle" x="355.5" y="-38.3" font-family="Times,serif" font-size="14.00">timer_callback_0</text>
</a>
</g>
</g>
<!-- /drive_node/timer_callback_0&#45;&gt;/message_driven_node/subscription_callback_1 -->
<g id="edge5" class="edge">
<title>/drive_node/timer_callback_0&#45;&gt;/message_driven_node/subscription_callback_1</title>
<path fill="none" stroke="black" d="M423.78,-45.51C453.71,-47.08 489.6,-48.95 522.71,-50.68"/>
<polygon fill="black" stroke="black" points="522.71,-54.19 532.88,-51.21 523.08,-47.2 522.71,-54.19"/>
<text text-anchor="middle" x="490.5" y="-53.8" font-family="Times,serif" font-size="14.00">/drive</text>
</g>
</g>
</svg>
