<?xml version="1.0" encoding="UTF-8" standalone="no"?>
<!DOCTYPE svg PUBLIC "-//W3C//DTD SVG 1.1//EN"
 "http://www.w3.org/Graphics/SVG/1.1/DTD/svg11.dtd">
<!-- Generated by graphviz version 2.43.0 (0)
 -->
<!-- Title: Hover the mouse over a callback. Pages: 1 -->
<svg width="1726pt" height="198pt"
 viewBox="0.00 0.00 1726.00 198.00" xmlns="http://www.w3.org/2000/svg" xmlns:xlink="http://www.w3.org/1999/xlink">
<g id="graph0" class="graph" transform="scale(1 1) rotate(0) translate(4 194)">
<title>Hover the mouse over a callback.</title>
<polygon fill="white" stroke="transparent" points="-4,4 -4,-194 1722,-194 1722,4 -4,4"/>
<g id="clust1" class="cluster">
<title>cluster_ns_</title>
<path fill="#e5e5e5" stroke="#e5e5e5" d="M12,-8C12,-8 1698,-8 1698,-8 1704,-8 1710,-14 1710,-20 1710,-20 1710,-170 1710,-170 1710,-176 1704,-182 1698,-182 1698,-182 12,-182 12,-182 6,-182 0,-176 0,-170 0,-170 0,-20 0,-20 0,-14 6,-8 12,-8"/>
</g>
<g id="clust2" class="cluster">
<title>cluster_node_/actuator_dummy_node</title>
<path fill="white" stroke="black" d="M1513,-99C1513,-99 1690,-99 1690,-99 1696,-99 1702,-105 1702,-111 1702,-111 1702,-162 1702,-162 1702,-168 1696,-174 1690,-174 1690,-174 1513,-174 1513,-174 1507,-174 1501,-168 1501,-162 1501,-162 1501,-111 1501,-111 1501,-105 1507,-99 1513,-99"/>
<text text-anchor="middle" x="1601.5" y="-158.8" font-family="Times,serif" font-size="14.00">/actuator_dummy_node</text>
</g>
<g id="clust3" class="cluster">
<title>cluster_node_/filter_node</title>
<path fill="white" stroke="black" d="M267,-99C267,-99 444,-99 444,-99 450,-99 456,-105 456,-111 456,-111 456,-162 456,-162 456,-168 450,-174 444,-174 444,-174 267,-174 267,-174 261,-174 255,-168 255,-162 255,-162 255,-111 255,-111 255,-105 261,-99 267,-99"/>
<text text-anchor="middle" x="355.5" y="-158.8" font-family="Times,serif" font-size="14.00">/filter_node</text>
</g>
<g id="clust4" class="cluster">
<title>cluster_node_/message_driven_node</title>
<path fill="white" stroke="black" d="M537,-99C537,-99 977,-99 977,-99 983,-99 989,-105 989,-111 989,-111 989,-162 989,-162 989,-168 983,-174 977,-174 977,-174 537,-174 537,-174 531,-174 525,-168 525,-162 525,-162 525,-111 525,-111 525,-105 531,-99 537,-99"/>
<text text-anchor="middle" x="757" y="-158.8" font-family="Times,serif" font-size="14.00">/message_driven_node</text>
</g>
<g id="clust5" class="cluster">
<title>cluster_node_/timer_driven_node</title>
<path fill="white" stroke="black" d="M1070,-99C1070,-99 1420,-99 1420,-99 1426,-99 1432,-105 1432,-111 1432,-111 1432,-162 1432,-162 1432,-168 1426,-174 1420,-174 1420,-174 1070,-174 1070,-174 1064,-174 1058,-168 1058,-162 1058,-162 1058,-111 1058,-111 1058,-105 1064,-99 1070,-99"/>
<text text-anchor="middle" x="1245" y="-158.8" font-family="Times,serif" font-size="14.00">/timer_driven_node</text>
</g>
<g id="clust6" class="cluster">
<title>cluster_node_/sensor_dummy_node</title>
<path fill="white" stroke="black" d="M20,-99C20,-99 166,-99 166,-99 172,-99 178,-105 178,-111 178,-111 178,-162 178,-162 178,-168 172,-174 166,-174 166,-174 20,-174 20,-174 14,-174 8,-168 8,-162 8,-162 8,-111 8,-111 8,-105 14,-99 20,-99"/>
<text text-anchor="middle" x="93" y="-158.8" font-family="Times,serif" font-size="14.00">/sensor_dummy_node</text>
</g>
<g id="clust7" class="cluster">
<title>cluster_node_/drive_node</title>
<path fill="white" stroke="black" d="M561.5,-16C561.5,-16 689.5,-16 689.5,-16 695.5,-16 701.5,-22 701.5,-28 701.5,-28 701.5,-79 701.5,-79 701.5,-85 695.5,-91 689.5,-91 689.5,-91 561.5,-91 561.5,-91 555.5,-91 549.5,-85 549.5,-79 549.5,-79 549.5,-28 549.5,-28 549.5,-22 555.5,-16 561.5,-16"/>
<text text-anchor="middle" x="625.5" y="-75.8" font-family="Times,serif" font-size="14.00">/drive_node</text>
</g>
<!-- /actuator_dummy_node/subscription_callback_0 -->
<g id="node1" class="node">
<title>/actuator_dummy_node/subscription_callback_0</title>
<g id="a_node1"><a xlink:title="topic name: /topic4&#10; symbol: ActuatorDummy::ActuatorDummy(std::__cxx11::basic_string&lt;char,std::char_traits&lt;char&gt;,std::allocator&lt;char&gt;&gt;,std::__cxx11::basic_string&lt;char,std::char_traits&lt;char&gt;,std::allocator&lt;char&gt;&gt;)::{lambda(std::unique_ptr&lt;sensor_msgs::msg::Image&gt;)#1}">
<polygon fill="none" stroke="black" points="1694,-143 1509,-143 1509,-107 1694,-107 1694,-143"/>
<text text-anchor="middle" x="1601.5" y="-121.3" font-family="Times,serif" font-size="14.00">subscription_callback_0</text>
</a>
</g>
</g>
<!-- /filter_node/subscription_callback_0 -->
<g id="node2" class="node">
<title>/filter_node/subscription_callback_0</title>
<g id="a_node2"><a xlink:title="topic name: /topic1&#10; symbol: NoDependencyNode::NoDependencyNode(std::__cxx11::basic_string&lt;char,std::char_traits&lt;char&gt;,std::allocator&lt;char&gt;&gt;,std::__cxx11::basic_string&lt;char,std::char_traits&lt;char&gt;,std::allocator&lt;char&gt;&gt;,std::__cxx11::basic_string&lt;char,std::char_traits&lt;char&gt;,std::allocator&lt;char&gt;&gt;)::{lambda(std::unique_ptr&lt;sensor_msgs::msg::Image&gt;)#1}">
<polygon fill="none" stroke="black" points="448,-143 263,-143 263,-107 448,-107 448,-143"/>
<text text-anchor="middle" x="355.5" y="-121.3" font-family="Times,serif" font-size="14.00">subscription_callback_0</text>
</a>
</g>
</g>
<!-- /message_driven_node/subscription_callback_0 -->
<g id="node3" class="node">
<title>/message_driven_node/subscription_callback_0</title>
<g id="a_node3"><a xlink:title="topic name: /topic2&#10; symbol: SubDependencyNode::SubDependencyNode(std::__cxx11::basic_string&lt;char,std::char_traits&lt;char&gt;,std::allocator&lt;char&gt;&gt;,std::__cxx11::basic_string&lt;char,std::char_traits&lt;char&gt;,std::allocator&lt;char&gt;&gt;,std::__cxx11::basic_string&lt;char,std::char_traits&lt;char&gt;,std::allocator&lt;char&gt;&gt;,std::__cxx11::basic_string&lt;char,std::char_traits&lt;char&gt;,std::allocator&lt;char&gt;&gt;)::{lambda(std::unique_ptr&lt;sensor_msgs::msg::Image&gt;)#1}">
<polygon fill="none" stroke="black" points="718,-143 533,-143 533,-107 718,-107 718,-143"/>
<text text-anchor="middle" x="625.5" y="-121.3" font-family="Times,serif" font-size="14.00">subscription_callback_0</text>
</a>
</g>
</g>
<!-- /filter_node/subscription_callback_0&#45;&gt;/message_driven_node/subscription_callback_0 -->
<g id="edge1" class="edge">
<title>/filter_node/subscription_callback_0&#45;&gt;/message_driven_node/subscription_callback_0</title>
<path fill="none" stroke="black" d="M448.36,-125C472.33,-125 498.3,-125 522.75,-125"/>
<polygon fill="black" stroke="black" points="522.76,-128.5 532.76,-125 522.76,-121.5 522.76,-128.5"/>
<text text-anchor="middle" x="490.5" y="-128.8" font-family="Times,serif" font-size="14.00">/topic2</text>
</g>
<!-- /message_driven_node/subscription_callback_1 -->
<g id="node4" class="node">
<title>/message_driven_node/subscription_callback_1</title>
<g id="a_node4"><a xlink:title="topic name: /drive&#10; symbol: SubDependencyNode::SubDependencyNode(std::__cxx11::basic_string&lt;char,std::char_traits&lt;char&gt;,std::allocator&lt;char&gt;&gt;,std::__cxx11::basic_string&lt;char,std::char_traits&lt;char&gt;,std::allocator&lt;char&gt;&gt;,std::__cxx11::basic_string&lt;char,std::char_traits&lt;char&gt;,std::allocator&lt;char&gt;&gt;,std::__cxx11::basic_string&lt;char,std::char_traits&lt;char&gt;,std::allocator&lt;char&gt;&gt;)::{lambda(std::unique_ptr&lt;sensor_msgs::msg::Image&gt;)#2}">
<polygon fill="none" stroke="black" points="981,-143 796,-143 796,-107 981,-107 981,-143"/>
<text text-anchor="middle" x="888.5" y="-121.3" font-family="Times,serif" font-size="14.00">subscription_callback_1</text>
</a>
</g>
</g>
<!-- /message_driven_node/subscription_callback_0&#45;&gt;/message_driven_node/subscription_callback_1 -->
<g id="edge6" class="edge">
<title>/message_driven_node/subscription_callback_0&#45;&gt;/message_driven_node/subscription_callback_1</title>
<path fill="none" stroke="black" d="M718.15,-125C739.93,-125 763.3,-125 785.51,-125"/>
<polygon fill="black" stroke="black" points="785.63,-128.5 795.63,-125 785.63,-121.5 785.63,-128.5"/>
</g>
<!-- /timer_driven_node/subscription_callback_0 -->
<g id="node5" class="node">
<title>/timer_driven_node/subscription_callback_0</title>
<g id="a_node5"><a xlink:title="topic name: /topic3&#10; symbol: TimerDependencyNode::TimerDependencyNode(std::__cxx11::basic_string&lt;char,std::char_traits&lt;char&gt;,std::allocator&lt;char&gt;&gt;,std::__cxx11::basic_string&lt;char,std::char_traits&lt;char&gt;,std::allocator&lt;char&gt;&gt;,std::__cxx11::basic_string&lt;char,std::char_traits&lt;char&gt;,std::allocator&lt;char&gt;&gt;,int)::{lambda(std::unique_ptr&lt;sensor_msgs::msg::Image&gt;)#1}">
<polygon fill="none" stroke="black" points="1251,-143 1066,-143 1066,-107 1251,-107 1251,-143"/>
<text text-anchor="middle" x="1158.5" y="-121.3" font-family="Times,serif" font-size="14.00">subscription_callback_0</text>
</a>
</g>
</g>
<!-- /message_driven_node/subscription_callback_1&#45;&gt;/timer_driven_node/subscription_callback_0 -->
<g id="edge2" class="edge">
<title>/message_driven_node/subscription_callback_1&#45;&gt;/timer_driven_node/subscription_callback_0</title>
<path fill="none" stroke="black" d="M981.36,-125C1005.33,-125 1031.3,-125 1055.75,-125"/>
<polygon fill="black" stroke="black" points="1055.76,-128.5 1065.76,-125 1055.76,-121.5 1055.76,-128.5"/>
<text text-anchor="middle" x="1023.5" y="-128.8" font-family="Times,serif" font-size="14.00">/topic3</text>
</g>
<!-- /timer_driven_node/timer_callback_0 -->
<g id="node6" class="node">
<title>/timer_driven_node/timer_callback_0</title>
<g id="a_node6"><a xlink:title="period ns: 100,000,000&#10; symbol: TimerDependencyNode::TimerDependencyNode(std::__cxx11::basic_string&lt;char,std::char_traits&lt;char&gt;,std::allocator&lt;char&gt;&gt;,std::__cxx11::basic_string&lt;char,std::char_traits&lt;char&gt;,std::allocator&lt;char&gt;&gt;,std::__cxx11::basic_string&lt;char,std::char_traits&lt;char&gt;,std::allocator&lt;char&gt;&gt;,int)::{lambda()#2}">
<polygon fill="none" stroke="black" points="1424,-143 1288,-143 1288,-107 1424,-107 1424,-143"/>
<text text-anchor="middle" x="1356" y="-121.3" font-family="Times,serif" font-size="14.00">timer_callback_0</text>
</a>
</g>
</g>
<!-- /timer_driven_node/subscription_callback_0&#45;&gt;/timer_driven_node/timer_callback_0 -->
<g id="edge7" class="edge">
<title>/timer_driven_node/subscription_callback_0&#45;&gt;/timer_driven_node/timer_callback_0</title>
<path fill="none" stroke="black" d="M1251.24,-125C1260.08,-125 1268.99,-125 1277.67,-125"/>
<polygon fill="black" stroke="black" points="1277.74,-128.5 1287.74,-125 1277.74,-121.5 1277.74,-128.5"/>
</g>
<!-- /timer_driven_node/timer_callback_0&#45;&gt;/actuator_dummy_node/subscription_callback_0 -->
<g id="edge3" class="edge">
<title>/timer_driven_node/timer_callback_0&#45;&gt;/actuator_dummy_node/subscription_callback_0</title>
<path fill="none" stroke="black" d="M1424.18,-125C1447.19,-125 1473.49,-125 1498.62,-125"/>
<polygon fill="black" stroke="black" points="1498.93,-128.5 1508.93,-125 1498.93,-121.5 1498.93,-128.5"/>
<text text-anchor="middle" x="1466.5" y="-128.8" font-family="Times,serif" font-size="14.00">/topic4</text>
</g>
<!-- /sensor_dummy_node/timer_callback_0 -->
<g id="node7" class="node">
<title>/sensor_dummy_node/timer_callback_0</title>
<g id="a_node7"><a xlink:title="period ns: 50,000,000&#10; symbol: SensorDummy::SensorDummy(std::__cxx11::basic_string&lt;char,std::char_traits&lt;char&gt;,std::allocator&lt;char&gt;&gt;,std::__cxx11::basic_string&lt;char,std::char_traits&lt;char&gt;,std::allocator&lt;char&gt;&gt;,int)::{lambda()#1}">
<polygon fill="none" stroke="black" points="161,-143 25,-143 25,-107 161,-107 161,-143"/>
<text text-anchor="middle" x="93" y="-121.3" font-family="Times,serif" font-size="14.00">timer_callback_0</text>
</a>
</g>
</g>
<!-- /sensor_dummy_node/timer_callback_0&#45;&gt;/filter_node/subscription_callback_0 -->
<g id="edge4" class="edge">
<title>/sensor_dummy_node/timer_callback_0&#45;&gt;/filter_node/subscription_callback_0</title>
<path fill="none" stroke="black" d="M161.09,-125C188.85,-125 221.67,-125 252.31,-125"/>
<polygon fill="black" stroke="black" points="252.61,-128.5 262.61,-125 252.61,-121.5 252.61,-128.5"/>
<text text-anchor="middle" x="220.5" y="-128.8" font-family="Times,serif" font-size="14.00">/topic1</text>
</g>
<!-- /drive_node/timer_callback_0 -->
<g id="node8" class="node">
<title>/drive_node/timer_callback_0</title>
<g id="a_node8"><a xlink:title="period ns: 100,000,000&#10; symbol: SensorDummy::SensorDummy(std::__cxx11::basic_string&lt;char,std::char_traits&lt;char&gt;,std::allocator&lt;char&gt;&gt;,std::__cxx11::basic_string&lt;char,std::char_traits&lt;char&gt;,std::allocator&lt;char&gt;&gt;,int)::{lambda()#1}">
<polygon fill="none" stroke="black" points="693.5,-60 557.5,-60 557.5,-24 693.5,-24 693.5,-60"/>
<text text-anchor="middle" x="625.5" y="-38.3" font-family="Times,serif" font-size="14.00">timer_callback_0</text>
</a>
</g>
</g>
<!-- /drive_node/timer_callback_0&#45;&gt;/message_driven_node/subscription_callback_1 -->
<g id="edge5" class="edge">
<title>/drive_node/timer_callback_0&#45;&gt;/message_driven_node/subscription_callback_1</title>
<path fill="none" stroke="black" d="M683.13,-60.01C723.61,-72.88 778.22,-90.25 820.81,-103.79"/>
<polygon fill="black" stroke="black" points="819.94,-107.19 830.53,-106.88 822.06,-100.52 819.94,-107.19"/>
<text text-anchor="middle" x="757" y="-91.8" font-family="Times,serif" font-size="14.00">/drive</text>
</g>
</g>
</svg>
